<svg xmlns="http://www.w3.org/2000/svg" version="1.1" xmlns:xlink="http://www.w3.org/1999/xlink" xmlns:svgjs="http://svgjs.dev/svgjs" width="2000" height="1500" viewBox="0 0 2000 1500"><rect width="2000" height="1500" fill="#755bb4"></rect><g transform="matrix(0.42105263157894735,0,0,0.42105263157894735,579.8188441789903,250.40486928602985)"><svg viewBox="0 0 208 247" data-background-color="#755bb4" preserveAspectRatio="xMidYMid meet" height="2375" width="2000" xmlns="http://www.w3.org/2000/svg" xmlns:xlink="http://www.w3.org/1999/xlink"><g id="tight-bounds" transform="matrix(1,0,0,1,-0.21525434260752263,-0.09999728635062866)"><svg viewBox="0 0 208.4305035971223 247.2" height="247.2" width="208.4305035971223"><g><svg viewBox="0 0 208.4305035971223 247.2" height="247.2" width="208.4305035971223"><g><svg viewBox="0 0 208.4305035971223 247.2" height="247.2" width="208.4305035971223"><g id="textblocktransform"><svg viewBox="0 0 208.4305035971223 247.2" height="247.2" width="208.4305035971223" id="textblock"><g><svg viewBox="0 0 208.4305035971223 247.2" height="247.2" width="208.4305035971223"><g transform="matrix(1,0,0,1,0,0)"><svg width="208.4305035971223" viewBox="1.100000023841858 -33.29999923706055 29.299999237060547 34.75" height="247.2" data-palette-color="#ffffff"><path d="M16.9 1.2Q14.75 1.45 13 1.45L13 1.45Q7.75 1.45 3.4-0.4L3.4-0.4 1.15-1.4Q1.1-1.45 1.1-1.65L1.1-1.65 1.2-2.75Q1.3-3.45 1.4-3.75L1.4-3.75Q1.4-4.45 1.45-4.8L1.45-4.8Q1.45-5.75 1.65-6.55L1.65-6.55Q1.65-7.15 1.7-7.3L1.7-7.3Q1.75-7.45 1.78-7.55 1.8-7.65 1.8-7.55L1.8-7.55Q4.45-6.6 5.9-6.4L5.9-6.4Q7.65-6.05 9.9-6.05L9.9-6.05Q10.9-6.05 11.45-7.5L11.45-7.5Q11.6-7.75 11.8-8.65L11.8-8.65Q12.05-9.65 12.05-9.65L12.05-9.65Q12.1-10.15 12.1-11.55L12.1-11.55Q12.1-13.7 12.2-15.15L12.2-15.15Q12.25-16.15 12.25-18L12.25-18 12.3-20.3 12.3-22.45 12.25-32.75Q12.25-33.05 12.43-33.15 12.6-33.25 12.95-33.25L12.95-33.25 18.15-33.3 23.15-33.3 28-33.3Q28.75-33.3 29.18-33.2 29.6-33.1 29.9-32.75L29.9-32.75Q30.2-32.25 30.25-31.65L30.25-31.65Q30.4-30.15 30.4-29.55L30.4-29.55 30.4-19.8 30.4-19.4Q30.35-19.3 30.35-19L30.35-19Q30.35-18.7 30.3-18.5L30.3-18.5Q30.25-18.2 30.28-17.9 30.3-17.6 30.25-17.3L30.25-17.3Q30.2-16.9 30.2-16.15L30.2-16.15 30.2-15.15 30.15-14.7Q30.15-12.7 30.08-11.35 30-10 29.7-8.65L29.7-8.65Q28.95-5.15 26.9-3.25L26.9-3.25Q24.5-1.05 20.4 0.4L20.4 0.4Q18.25 1 16.9 1.2L16.9 1.2Z" opacity="1" transform="matrix(1,0,0,1,0,0)" fill="#ffffff" class="undefined-text-0" data-fill-palette-color="primary" id="text-0"></path></svg></g></svg></g></svg></g></svg></g></svg></g><defs></defs></svg><rect width="208.4305035971223" height="247.2" fill="none" stroke="none" visibility="hidden"></rect></g></svg></g></svg>